<svg width="2000" height="2000" xmlns="http://www.w3.org/2000/svg">
 <defs>
  <style>.cls-1{font-size:100px;font-family:DazzleUnicase-Medium, Dazzle Unicase;font-weight:500;}.cls-2{letter-spacing:1.53em;}.cls-3{letter-spacing:1.5em;}</style>
 </defs>
 <g>
  <title>Layer 1</title>
  <circle id="svg_1" r="19.08" cy="1090.07" cx="543.13"/>
  <circle id="svg_2" r="15.2" cy="801.19" cx="755.27"/>
  <rect id="svg_3" transform="rotate(36.900001525878906 687.3099975585936,-213.38000488281244) " height="305.81" width="30.4" y="557.18" x="1335.58"/>
  <circle id="svg_4" r="15.2" cy="801.7" cx="1244.8"/>
  <rect id="svg_5" transform="rotate(143.10000610351562 2960.239990234375,860.4299926757812) " height="305.81" width="30.4" y="1631.49999" x="4281.63999"/>
  <ellipse id="svg_6" ry="91.48" rx="67.98" cy="394.63" cx="1163.04"/>
  <path id="svg_7" d="m886.66,300.72c-7.46,0 -13.51,6.68 -13.51,14.92l0,103.1c0,6.25 -4.58,11.32 -10.24,11.32s-10.25,-5.07 -10.25,-11.32l0,-16.26l0,0l0,-86.84c0,-8.24 -6,-14.92 -13.51,-14.92s-13.51,6.68 -13.51,14.92l0,105.36c-1,5.16 -5.09,9 -10,9c-5.65,0 -10.24,-5.07 -10.24,-11.32l0,-103.04c0,-8.24 -6.05,-14.92 -13.51,-14.92s-13.52,6.68 -13.52,14.92l0,132.59l0,0l0,24.36c0,7.47 5.48,13.52 12.24,13.52l97.32,0c6.76,0 12.24,-6.05 12.24,-13.52l0,-156.95c0.01,-8.24 -6.04,-14.92 -13.51,-14.92z"/>
  <ellipse id="svg_8" ry="15.79" rx="15.2" cy="453.03" cx="854.45"/>
  <rect id="svg_9" transform="rotate(180 1708.9100341796875,1223.81005859375) " height="317.76" width="30.4" y="1676.84006" x="2548.17003"/>
  <circle id="svg_10" r="15.2" cy="770.79" cx="854.45"/>
  <ellipse id="svg_11" ry="15.79" rx="15.2" cy="453.32" cx="830.05"/>
  <rect id="svg_12" transform="rotate(180 1660.1099853515625,1224.4100341796875) " height="317.76" width="30.4" y="1677.73003" x="2474.95999"/>
  <circle id="svg_13" r="15.2" cy="771.09" cx="830.05"/>
  <ellipse id="svg_14" ry="15.79" rx="15.2" cy="453.32" cx="1178.24"/>
  <rect id="svg_15" transform="rotate(180 2356.47998046875,1224.4100341796877) " height="317.76" width="30.4" y="1677.73003" x="3519.51998"/>
  <circle id="svg_16" r="15.2" cy="771.09" cx="1178.24"/>
  <ellipse id="svg_17" ry="16.51" rx="15.2" cy="435.19" cx="1147.84"/>
  <rect id="svg_18" transform="rotate(180 2295.679931640625,1202.6099853515627) " height="332.23" width="30.4" y="1637.79999" x="3428.31993"/>
  <circle id="svg_19" r="15.2" cy="767.42" cx="1147.84"/>
  <ellipse id="svg_20" transform="rotate(-53.099998474121094 -193.61000061035162,950.6900024414062) " ry="15.2" rx="15.76" cy="1619.76" cx="660.84"/>
  <rect id="svg_21" transform="rotate(-143.10000610351562 981.2399902343749,1824.1600341796873) " height="197.73" width="30.4" y="2473.71003" x="1760.92999"/>
  <ellipse id="svg_22" ry="3.73" rx="15.2" cy="597.38" cx="1147.84"/>
  <rect id="svg_23" height="74.98" width="30.4" y="597.38" x="1132.64"/>
  <ellipse id="svg_24" transform="rotate(-36.900001525878906 -173.77000427246114,823.7999877929688) " ry="15.76" rx="15.2" cy="1496.15999" cx="974.07"/>
  <rect id="svg_25" transform="rotate(-36.900001525878906 -209.47999572753886,875.4500122070311) " height="197.73" width="30.4" y="1528.28001" x="982.72"/>
  <circle id="svg_26" r="19.08" cy="1090.17" cx="1456.87"/>
  <path id="svg_27" d="m1467,1092.22c0,-5.49 2.36,-10.22 5.79,-12.5l-44.1,-58.74q-15.52,18.42 -32.71,35.61a559.5,559.5 0 0 1 -792,0q-17.2,-17.22 -32.76,-35.67l-43.1,57.41a15.86,15.86 0 0 1 4,27.72q5.46,5.73 11.06,11.35a645.47,645.47 0 0 0 913.59,0q7.13,-7.11 14,-14.43a16.18,16.18 0 0 1 -3.77,-10.75z"/>
  <path id="svg_28" d="m857.89,733.44c0,-20.19 3.88,-38.78 10.38,-53.56l-24.43,-18.34l-281.63,375.13l71.27,53.5l232.28,-309.41c-4.98,-13.62 -7.87,-29.87 -7.87,-47.32z"/>
  <path id="svg_29" d="m1143,728.44c0,-20.2 -3.87,-38.79 -10.38,-53.57l24.43,-18.34l281.63,375.14l-71.26,53.5l-232.27,-309.41a139.22,139.22 0 0 0 7.85,-47.32z"/>
  <path id="svg_30" d="m873.53,384.13a10.18,10.18 0 0 1 -20.36,0l-27.17,0a10.18,10.18 0 0 1 -20.35,0l-8.77,0l0,84.69l84.72,0l0,-84.69l-8.07,0z"/>
  <path id="svg_31" d="m1346,1198.72l-147.26,-202.72a21.46,21.46 0 1 1 11.44,-8.59l147.24,202.69"/>
  <path id="svg_32" d="m1263,1239.23l-86.16,-116.52a21.47,21.47 0 1 1 11.44,-8.59l86.17,116.5"/>
  <path id="svg_33" d="m661,1198.72l147.26,-202.72a21.47,21.47 0 1 0 -11.44,-8.59l-147.25,202.71"/>
  <path id="svg_34" d="m744,1239.23l86.15,-116.52a21.47,21.47 0 1 0 -11.44,-8.59l-86.17,116.5"/>
  <path id="svg_35" d="m912,787.09l2.22,-195.39a21.47,21.47 0 1 0 -14.31,0l-2.21,195.39"/>
  <rect id="svg_36" transform="rotate(36.900001525878906 725.7999877929688,-279.8699951171875) " height="412.9" width="14.29" y="461.58" x="1501.01999"/>
  <path id="svg_37" d="m1090.3,787.09l-2.22,-195.39a21.47,21.47 0 1 1 14.31,0l2.24,195.39"/>
  <rect id="svg_38" transform="rotate(143.10000610351562 2764.6899414062495,973.510009765625) " height="412.9" width="14.29" y="1714.96001" x="3977.50994"/>
  <path id="svg_39" d="m907,940.53l1.42,-52.47a21.46,21.46 0 1 0 -14.29,-0.56l-1.46,52.5"/>
  <rect id="svg_40" transform="rotate(36.900001525878906 801.2800292968749,-268.7200012207031) " height="326.03" width="14.29" y="634.87" x="1597.54003"/>
  <path id="svg_41" d="m1093.08,937.77l-1.42,-52.47a21.46,21.46 0 1 1 14.3,-0.56l1.44,52.46"/>
  <rect id="svg_42" transform="rotate(143.10000610351562 2792.3701171874995,1196.1600341796875) " height="326.03" width="14.29" y="2096.99003" x="3981.89012"/>
  <path id="svg_53" d="m1001.9,992.39m0,302.87l4.72,0l7.76,-208.26c14.52,-2.83 25,-10.43 25,-19.35c0,-11.32 -16.8,-20.53 -37.44,-20.53s-37.44,9.21 -37.44,20.53c0,8.92 10.43,16.52 25,19.35l5.5,208.26"/>
  <path id="svg_54" d="m948.74,1046.41c0,-71.7 53.16,-123.38 53.16,-123.38s53.16,51.1 53.16,123.38c0,39.23 -23.8,61.22 -53.16,61.22s-53.16,-21.99 -53.16,-61.22z"/>
  <path id="svg_55" d="m1030.74,1145c28.68,-28.68 70.6,-28.09 70.6,-28.09s0.83,41.7 -28.08,70.61c-15.69,15.69 -34,15 -45.75,3.23s-12.51,-30.06 3.23,-45.75z"/>
  <path id="svg_56" d="m973.06,1145c-28.68,-28.68 -70.61,-28.09 -70.61,-28.09s-0.82,41.7 28.09,70.61c15.69,15.69 34,15 45.75,3.23s12.46,-30.06 -3.23,-45.75z"/>
 </g>
</svg>