<svg id="Layer_1" data-name="Layer 1" xmlns="http://www.w3.org/2000/svg" viewBox="0 0 2000 2000"><defs><style>.cls-1{font-size:100px;font-family:DazzleUnicase-Medium, Dazzle Unicase;font-weight:500;}.cls-2{letter-spacing:1.53em;}.cls-3{letter-spacing:1.5em;}</style></defs><circle cx="543.13" cy="1090.07" r="19.08"/><circle cx="755.27" cy="801.19" r="15.2"/><rect x="648.27" y="770.56" width="30.4" height="305.81" transform="translate(687.31 -213.38) rotate(36.9)"/><circle cx="1244.8" cy="801.7" r="15.2"/><rect x="1321.4" y="771.07" width="30.4" height="305.81" transform="translate(2960.24 860.43) rotate(143.1)"/><ellipse cx="1163.04" cy="394.63" rx="67.98" ry="91.48"/><path d="M886.66,300.72c-7.46,0-13.51,6.68-13.51,14.92v103.1c0,6.25-4.58,11.32-10.24,11.32s-10.25-5.07-10.25-11.32V402.48h0V315.64c0-8.24-6-14.92-13.51-14.92s-13.51,6.68-13.51,14.92V421c-1,5.16-5.09,9-10,9-5.65,0-10.24-5.07-10.24-11.32V315.64c0-8.24-6.05-14.92-13.51-14.92s-13.52,6.68-13.52,14.92V448.23h0v24.36c0,7.47,5.48,13.52,12.24,13.52h97.32c6.76,0,12.24-6.05,12.24-13.52V315.64C900.18,307.4,894.13,300.72,886.66,300.72Z"/><ellipse cx="854.45" cy="453.03" rx="15.2" ry="15.79"/><rect x="839.26" y="453.03" width="30.4" height="317.76" transform="translate(1708.91 1223.81) rotate(180)"/><circle cx="854.45" cy="770.79" r="15.2"/><ellipse cx="830.05" cy="453.32" rx="15.2" ry="15.79"/><rect x="814.85" y="453.32" width="30.4" height="317.76" transform="translate(1660.11 1224.41) rotate(180)"/><circle cx="830.05" cy="771.09" r="15.2"/><ellipse cx="1178.24" cy="453.32" rx="15.2" ry="15.79"/><rect x="1163.04" y="453.32" width="30.4" height="317.76" transform="translate(2356.48 1224.41) rotate(180)"/><circle cx="1178.24" cy="771.09" r="15.2"/><ellipse cx="1147.84" cy="435.19" rx="15.2" ry="16.51"/><rect x="1132.64" y="435.19" width="30.4" height="332.23" transform="translate(2295.68 1202.61) rotate(180)"/><circle cx="1147.84" cy="767.42" r="15.2"/><ellipse cx="854.45" cy="669.07" rx="15.76" ry="15.2" transform="translate(-193.61 950.69) rotate(-53.1)"/><rect x="779.69" y="649.55" width="30.4" height="197.73" transform="translate(981.24 1824.16) rotate(-143.1)"/><ellipse cx="1147.84" cy="597.38" rx="15.2" ry="3.73"/><rect x="1132.64" y="597.38" width="30.4" height="74.98"/><ellipse cx="1147.84" cy="672.36" rx="15.2" ry="15.76" transform="translate(-173.77 823.8) rotate(-36.9)"/><rect x="1192.2" y="652.83" width="30.4" height="197.73" transform="translate(-209.48 875.45) rotate(-36.9)"/><circle cx="1456.87" cy="1090.17" r="19.08"/><path d="M1467,1092.22c0-5.49,2.36-10.22,5.79-12.5l-44.1-58.74q-15.52,18.42-32.71,35.61a559.5,559.5,0,0,1-792,0q-17.2-17.22-32.76-35.67l-43.1,57.41a15.86,15.86,0,0,1,4,27.72q5.46,5.73,11.06,11.35a645.47,645.47,0,0,0,913.59,0q7.13-7.11,14-14.43A16.18,16.18,0,0,1,1467,1092.22Z"/><path d="M857.89,733.44c0-20.19,3.88-38.78,10.38-53.56l-24.43-18.34L562.21,1036.67l71.27,53.5L865.76,780.76C860.78,767.14,857.89,750.89,857.89,733.44Z"/><path d="M1143,728.44c0-20.2-3.87-38.79-10.38-53.57l24.43-18.34,281.63,375.14-71.26,53.5L1135.15,775.76A139.22,139.22,0,0,0,1143,728.44Z"/><path d="M873.53,384.13a10.18,10.18,0,0,1-20.36,0H826a10.18,10.18,0,0,1-20.35,0h-8.77v84.69H881.6V384.13Z"/><path d="M1346,1198.72,1198.74,996a21.46,21.46,0,1,1,11.44-8.59l147.24,202.69"/><path d="M1263,1239.23l-86.16-116.52a21.47,21.47,0,1,1,11.44-8.59l86.17,116.5"/><path d="M661,1198.72,808.26,996a21.47,21.47,0,1,0-11.44-8.59L649.57,1190.12"/><path d="M744,1239.23l86.15-116.52a21.47,21.47,0,1,0-11.44-8.59l-86.17,116.5"/><path d="M912,787.09l2.22-195.39a21.47,21.47,0,1,0-14.31,0L897.7,787.09"/><rect x="775.22" y="741.45" width="14.29" height="412.9" transform="translate(725.8 -279.87) rotate(36.9)"/><path d="M1090.3,787.09l-2.22-195.39a21.47,21.47,0,1,1,14.31,0l2.24,195.39"/><rect x="1212.82" y="741.45" width="14.29" height="412.9" transform="translate(2764.69 973.51) rotate(143.1)"/><path d="M907,940.53l1.42-52.47a21.46,21.46,0,1,0-14.29-.56L892.67,940"/><rect x="796.26" y="903.59" width="14.29" height="326.03" transform="translate(801.28 -268.72) rotate(36.9)"/><path d="M1093.08,937.77l-1.42-52.47a21.46,21.46,0,1,1,14.3-.56l1.44,52.46"/><rect x="1189.52" y="900.83" width="14.29" height="326.03" transform="translate(2792.37 1196.16) rotate(143.1)"/><path d="M761.72,1499.93a45.28,45.28,0,1,1-41-64.63c19,0,34.49,11,41.32,26.17h42.28c-8.07-37.16-42.59-66.57-83.6-66.57-48,0-85.6,39.8-85.6,85.6s37.6,85.4,85.6,85.4c40.91,0,75.27-29,83.64-66Z"/><path d="M845.3,1398.7h40.4v164.4H845.3Z"/><path d="M935.1,1398.3h45.8c39.2,0,58.6,14.6,58.6,45,0,14.2-6.2,24.8-15.2,30.6,14.4,6,22.8,19.8,22.8,36.4,0,32.6-20.8,52.8-65.6,52.8H935.1Zm46.6,64.8c12.6,0,20.2-4,20.2-15,0-12-7.4-15.8-20.2-15.8h-8.8v30.8Zm-1.4,63.4c17.2,0,26-4,26-17,0-12.8-8.8-17.6-24.6-17.6h-8.8v34.6Z"/><path d="M1085.7,1500.3v-102h40.4v103.4c0,13.8,4.8,25,20.4,25s20.4-11.2,20.4-25V1398.3h40.4v102c0,39.8-23.2,65.4-60.8,65.4S1085.7,1539.9,1085.7,1500.3Z"/><path d="M1246.9,1509.5h39.39c.4,10.8,6.8,20,19.8,20,11.2,0,18.2-6.8,18.2-16.2,0-11-9.2-15.4-26.8-21.6-28.59-10-44.79-22.6-44.79-49.6,0-28.2,23-47,52.79-47,32,0,53,20.8,53.2,52.2l-36.8-.2c-.4-9.6-5.6-17.2-16.4-17.2-9,0-14.8,5.6-14.8,12.8,0,10.2,10.2,13.6,22.4,17.8,28,9.4,51.8,17.8,51.8,53.4,0,32.6-25.4,51.8-58.6,51.8C1270.9,1565.7,1247.1,1542.9,1246.9,1509.5Z"/><text class="cls-1" transform="translate(649.58 1689.57)"><tspan class="cls-2">2</tspan><tspan class="cls-3" x="216.4" y="0">0</tspan><tspan class="cls-2" x="458" y="0">1</tspan><tspan x="643.6" y="0">2</tspan></text><path d="M1001.9,992.39m0,302.87,4.72,0,7.76-208.26c14.52-2.83,25-10.43,25-19.35,0-11.32-16.8-20.53-37.44-20.53s-37.44,9.21-37.44,20.53c0,8.92,10.43,16.52,25,19.35L995,1295.26"/><path d="M948.74,1046.41c0-71.7,53.16-123.38,53.16-123.38s53.16,51.1,53.16,123.38c0,39.23-23.8,61.22-53.16,61.22S948.74,1085.64,948.74,1046.41Z"/><path d="M1030.74,1145c28.68-28.68,70.6-28.09,70.6-28.09s.83,41.7-28.08,70.61c-15.69,15.69-34,15-45.75,3.23S1015,1160.69,1030.74,1145Z"/><path d="M973.06,1145c-28.68-28.68-70.61-28.09-70.61-28.09s-.82,41.7,28.09,70.61c15.69,15.69,34,15,45.75,3.23S988.75,1160.69,973.06,1145Z"/></svg>